<?xml version="1.0" encoding="UTF-8" standalone="no"?>
<!-- Created with Inkscape (http://www.inkscape.org/) -->

<svg
   xmlns:dc="http://purl.org/dc/elements/1.1/"
   xmlns:cc="http://creativecommons.org/ns#"
   xmlns:rdf="http://www.w3.org/1999/02/22-rdf-syntax-ns#"
   xmlns:svg="http://www.w3.org/2000/svg"
   xmlns="http://www.w3.org/2000/svg"
   version="1.1"
   width="128"
   height="128"
   viewBox="0 0 1024 1024"
   id="svg2">
  <metadata
     id="metadata10">
    <rdf:RDF>
      <cc:Work
         rdf:about="">
        <dc:format>image/svg+xml</dc:format>
        <dc:type
           rdf:resource="http://purl.org/dc/dcmitype/StillImage" />
        <dc:title></dc:title>
      </cc:Work>
    </rdf:RDF>
  </metadata>
  <defs
     id="defs8" />
  <path
     d="m 640.8,12.64 c 40.68,-5.326 85.35,9.973 106.5,47.33 28.91,51.11 12.97,122.6 -40.87,156.7 -41.97,26.63 -98.75,28.74 -137.6,0.9018 -33.6,-23.9 -45.5,-73.5 -33.7,-115.1 13.7,-48 56.6,-83.33 105.7,-89.76 z m 23.7,330.9 c 22.1,55.7 -5.4,119.8 -25.3,174.7 -35.6,97.2 -104.8,279 -116.7,315.4 -13.7,41.6 -0.4,59.4 26.3,48.8 45.6,-18.5 96,-98.6 131.2,-124 14.4,-10.4 30,13.6 23.1,29.6 -27.9,64.8 -138.5,161.5 -225.5,199.2 -48,20.8 -111.2,35.8 -157.3,14.8 -38.9,-17.5 -45.9,-60.9 -40.4,-97.4 16.3,-107.1 64.7,-205.3 102.8,-305.6 22.03,-58 64.68,-156.2 68,-173.3 6.1,-31.3 -16.2,-39.1 -41.1,-25.7 -50.4,27.2 -98.4,106 -125.6,123.2 -15.3,9.7 -31.3,-7.1 -28,-20.8 8,-33.6 84,-106.4 112,-129.6 74.4,-61.6 140.7,-75.3 187.3,-79.51 41.41,-3.781 92.42,7.921 109.2,50.21 z"
     id="path4"
     style="fill:#c58200;fill-opacity:1;stroke:none" />
</svg>
